<?xml version="1.0" encoding="iso-8859-1"?>
<!-- Uploaded to: SVG Repo, www.svgrepo.com, Generator: SVG Repo Mixer Tools -->
<svg height="800px" width="800px" version="1.1" id="Layer_1" xmlns="http://www.w3.org/2000/svg" xmlns:xlink="http://www.w3.org/1999/xlink" 
	 viewBox="0 0 512 512" xml:space="preserve">
<polygon style="fill:#E6E2E0;" points="198.714,10.51 41.383,167.84 59.128,215.311 41.383,262.781 181.661,403.058 280.093,501.49 
	484.893,296.689 "/>
<polygon style="fill:#CCC4C1;" points="42.434,167.84 42.434,262.781 89.904,215.311 "/>
<polygon style="fill:#1F5985;" points="125.111,413.967 340.777,198.302 296.05,153.575 80.385,369.241 87.884,406.468 "/>
<path style="fill:#CCC4C1;" d="M78.283,371.343c-31.446,31.446-40.994,61.018-28.643,73.369s41.923,2.803,73.369-28.643
	L78.283,371.343z"/>
<path style="fill:#269AF2;" d="M271.374,161.778L375.959,57.193c16.583-16.583,43.566-16.583,60.149,0s16.583,43.566,0,60.149
	L331.523,221.927L271.374,161.778z"/>
<g>
	<path style="fill:#11113F;" d="M29.873,263.808c0.009,0.09,0.027,0.179,0.039,0.269c0.03,0.251,0.063,0.501,0.111,0.749
		c0.016,0.077,0.039,0.152,0.056,0.229c0.057,0.259,0.117,0.516,0.193,0.771c0.017,0.055,0.039,0.107,0.057,0.162
		c0.087,0.272,0.18,0.542,0.289,0.808c0.016,0.037,0.035,0.073,0.05,0.109c0.118,0.276,0.244,0.551,0.387,0.819
		c0.022,0.042,0.049,0.081,0.073,0.122c0.141,0.256,0.288,0.51,0.453,0.757c0.067,0.101,0.146,0.197,0.218,0.295
		c0.128,0.179,0.252,0.359,0.394,0.532c0.222,0.272,0.457,0.534,0.707,0.784l50.962,50.961c2.053,2.052,4.742,3.078,7.431,3.078
		c2.689,0,5.38-1.027,7.431-3.078c4.104-4.104,4.104-10.759,0-14.864l-43.53-43.53l40.039-40.039
		c1.971-1.972,3.078-4.644,3.078-7.431s-1.108-5.46-3.078-7.431L55.195,167.84L197.664,25.374l83.288,83.288
		c4.105,4.103,10.76,4.104,14.864,0c4.104-4.104,4.104-10.759,0-14.864l-90.72-90.72C203.124,1.108,200.451,0,197.664,0
		s-5.461,1.108-7.431,3.078L32.901,160.409c-0.248,0.249-0.482,0.509-0.703,0.778c-0.184,0.224-0.35,0.457-0.512,0.692
		c-0.032,0.046-0.068,0.088-0.1,0.136c-0.184,0.274-0.35,0.557-0.506,0.845c-0.006,0.012-0.015,0.022-0.02,0.035
		c-0.154,0.289-0.292,0.583-0.417,0.883c-0.006,0.016-0.015,0.03-0.021,0.045c-0.116,0.282-0.215,0.568-0.307,0.855
		c-0.013,0.039-0.028,0.077-0.04,0.116c-0.081,0.267-0.144,0.538-0.203,0.81c-0.014,0.064-0.034,0.127-0.046,0.191
		c-0.051,0.26-0.085,0.52-0.117,0.782c-0.009,0.08-0.026,0.158-0.035,0.238c-0.034,0.342-0.05,0.684-0.05,1.027v94.942
		c0,0.009,0.001,0.018,0.001,0.026C29.825,263.142,29.84,263.476,29.873,263.808z M50.842,193.213l22.098,22.098l-22.098,22.098
		V193.213z"/>
	<path style="fill:#11113F;" d="M324.091,230.41c2.053,2.051,4.742,3.078,7.431,3.078c2.689,0,5.379-1.027,7.431-3.078
		l104.586-104.586c20.68-20.682,20.68-54.331,0-75.013c-20.683-20.679-54.332-20.679-75.013,0L263.941,155.397
		c-4.104,4.104-4.104,10.759,0,14.864l0.28,0.28L70.85,363.912c-29.833,29.833-42.571,60.024-34.586,79.313l-15.538,15.539
		c-4.104,4.104-4.104,10.759,0,14.864c2.053,2.051,4.742,3.078,7.431,3.078s5.38-1.027,7.431-3.078l15.561-15.562
		c3.406,1.41,7.603,2.397,12.712,2.396c5.306,0,11.586-1.058,18.957-3.792c15.033-5.578,31.5-17.047,47.622-33.168L323.812,230.13
		L324.091,230.41z M75.508,436.963c-8.568,3.177-15.459,3.298-18.437,0.318c-5.69-5.69-0.858-25.883,21.42-50.865l29.444,29.443
		C96.618,425.944,85.335,433.317,75.508,436.963z M123.009,401.206l-29.863-29.863l185.939-185.939l7.5,7.5l-6.89,6.89
		c-4.104,4.104-4.104,10.759,0,14.864c2.053,2.051,4.742,3.078,7.431,3.078s5.379-1.027,7.431-3.078l6.89-6.89l7.5,7.5
		L123.009,401.206z M416.411,77.941c-4.105-4.103-10.758-4.103-14.864,0L301.448,178.04l-14.922-14.922
		c-0.003-0.003-0.006-0.007-0.009-0.01s-0.007-0.006-0.011-0.009l-0.269-0.269l97.154-97.154c12.484-12.486,32.8-12.486,45.286,0
		c12.486,12.486,12.486,32.801,0,45.286l-97.154,97.154l-0.269-0.269c-0.003-0.003-0.006-0.007-0.009-0.01
		c-0.003-0.003-0.007-0.006-0.01-0.009l-14.922-14.922L416.412,92.806C420.515,88.7,420.515,82.045,416.411,77.941z"/>
	<path style="fill:#11113F;" d="M491.274,289.258l-90.72-90.72c-4.105-4.103-10.758-4.103-14.864,0
		c-4.104,4.104-4.104,10.759,0,14.864l83.288,83.288L279.042,486.626l-91.001-91.001c-4.104-4.103-10.759-4.103-14.864,0
		c-4.104,4.104-4.104,10.759,0,14.864l98.432,98.432c2.053,2.051,4.742,3.078,7.431,3.078s5.379-1.027,7.431-3.078l204.801-204.801
		C495.378,300.017,495.378,293.362,491.274,289.258z"/>
</g>
</svg>